<svg xmlns="http://www.w3.org/2000/svg" width="53.987" height="52.666" viewBox="0 0 53.987 52.666">
  <g id="github-logo" transform="translate(0 -5.365)">
    <path id="Path_1" data-name="Path 1" d="M50.366,18.809a26.876,26.876,0,0,0-9.823-9.824,26.4,26.4,0,0,0-13.549-3.62,26.405,26.405,0,0,0-13.549,3.62A26.873,26.873,0,0,0,3.62,18.809,26.4,26.4,0,0,0,0,32.357,26.233,26.233,0,0,0,5.149,48.226a26.437,26.437,0,0,0,13.3,9.753,1.573,1.573,0,0,0,1.406-.246,1.375,1.375,0,0,0,.457-1.054q0-.105-.018-1.9t-.018-3.128l-.808.14a10.312,10.312,0,0,1-1.951.123,14.862,14.862,0,0,1-2.443-.246,5.458,5.458,0,0,1-2.355-1.054,4.46,4.46,0,0,1-1.546-2.161l-.351-.809a8.782,8.782,0,0,0-1.107-1.792A4.241,4.241,0,0,0,8.189,44.52l-.246-.176a2.58,2.58,0,0,1-.457-.422,1.928,1.928,0,0,1-.316-.492q-.106-.247.176-.4a2.28,2.28,0,0,1,1.019-.157l.7.105a5.131,5.131,0,0,1,1.74.843,5.673,5.673,0,0,1,1.7,1.827,6.2,6.2,0,0,0,1.951,2.2,4.138,4.138,0,0,0,2.3.755,10,10,0,0,0,2-.175,6.991,6.991,0,0,0,1.582-.528,5.7,5.7,0,0,1,1.722-3.62,24.066,24.066,0,0,1-3.6-.633,14.344,14.344,0,0,1-3.3-1.371,9.462,9.462,0,0,1-2.83-2.354,11.316,11.316,0,0,1-1.845-3.691,17.55,17.55,0,0,1-.72-5.272,10.251,10.251,0,0,1,2.777-7.241,9.449,9.449,0,0,1,.246-7.17,4.925,4.925,0,0,1,3.023.474,21.133,21.133,0,0,1,2.935,1.353q.932.562,1.494.949a25.384,25.384,0,0,1,13.5,0l1.336-.843a18.915,18.915,0,0,1,3.233-1.547,4.606,4.606,0,0,1,2.848-.386,9.357,9.357,0,0,1,.281,7.17,10.253,10.253,0,0,1,2.777,7.241,17.746,17.746,0,0,1-.721,5.289,10.877,10.877,0,0,1-1.862,3.691,9.826,9.826,0,0,1-2.848,2.337,14.372,14.372,0,0,1-3.3,1.371,24.041,24.041,0,0,1-3.6.633q1.827,1.581,1.827,4.991v7.415a1.4,1.4,0,0,0,.44,1.054,1.527,1.527,0,0,0,1.388.246,26.433,26.433,0,0,0,13.3-9.753,26.238,26.238,0,0,0,5.149-15.869A26.426,26.426,0,0,0,50.366,18.809Z" fill="#e5e5e5"/>
  </g>
</svg>
