<svg xmlns="http://www.w3.org/2000/svg" width="60.801" height="60.813" viewBox="0 0 60.801 60.813">
  <g id="instagram-sketched" transform="translate(-0.449 0)">
    <path id="Path_3" data-name="Path 3" d="M61.095,17.879A22.221,22.221,0,0,0,59.681,10.5a15.578,15.578,0,0,0-8.9-8.9A22.278,22.278,0,0,0,43.406.19C40.151.036,39.117,0,30.861,0s-9.29.036-12.533.178a22.227,22.227,0,0,0-7.377,1.414A14.838,14.838,0,0,0,5.557,5.108a14.972,14.972,0,0,0-3.5,5.382A22.281,22.281,0,0,0,.639,17.867c-.155,3.255-.19,4.289-.19,12.545S.484,39.7.627,42.946a22.22,22.22,0,0,0,1.414,7.378,15.575,15.575,0,0,0,8.9,8.9,22.281,22.281,0,0,0,7.378,1.414c3.243.143,4.277.178,12.533.178s9.29-.035,12.533-.178a22.216,22.216,0,0,0,7.377-1.414,15.555,15.555,0,0,0,8.9-8.9,22.3,22.3,0,0,0,1.414-7.378c.142-3.243.178-4.277.178-12.533s-.012-9.29-.155-12.533ZM55.619,42.708a16.668,16.668,0,0,1-1.046,5.643A10.088,10.088,0,0,1,48.8,54.125a16.727,16.727,0,0,1-5.643,1.045c-3.208.143-4.17.178-12.283.178s-9.088-.035-12.284-.178a16.66,16.66,0,0,1-5.643-1.045,9.358,9.358,0,0,1-3.492-2.269,9.455,9.455,0,0,1-2.269-3.492A16.73,16.73,0,0,1,6.139,42.72C6,39.512,5.961,38.55,5.961,30.436S6,21.348,6.139,18.153A16.66,16.66,0,0,1,7.184,12.51,9.243,9.243,0,0,1,9.466,9.017a9.44,9.44,0,0,1,3.492-2.269A16.739,16.739,0,0,1,18.6,5.7c3.208-.142,4.17-.178,12.283-.178s9.088.036,12.284.178a16.668,16.668,0,0,1,5.643,1.046A9.351,9.351,0,0,1,52.3,9.017a9.453,9.453,0,0,1,2.269,3.493,16.736,16.736,0,0,1,1.046,5.643c.142,3.208.178,4.17.178,12.283s-.036,9.064-.178,12.272Zm0,0" fill="#2c5364"/>
    <path id="Path_4" data-name="Path 4" d="M140.571,124.5a15.622,15.622,0,1,0,15.622,15.622A15.626,15.626,0,0,0,140.571,124.5Zm0,25.755A10.134,10.134,0,1,1,150.7,140.122,10.135,10.135,0,0,1,140.571,150.255Zm0,0" transform="translate(-109.71 -109.71)" fill="#2c5364"/>
    <path id="Path_5" data-name="Path 5" d="M369.744,92.249A3.647,3.647,0,1,1,366.1,88.6,3.647,3.647,0,0,1,369.744,92.249Zm0,0" transform="translate(-318.996 -78.076)" fill="#2c5364"/>
  </g>
</svg>
