<svg xmlns="http://www.w3.org/2000/svg" width="70.154" height="57" viewBox="0 0 70.154 57">
  <g id="twitter" transform="translate(0 -48)">
    <g id="Group_6" data-name="Group 6" transform="translate(0 48)">
      <path id="Path_6" data-name="Path 6" d="M70.154,54.748a29.986,29.986,0,0,1-8.287,2.271,14.3,14.3,0,0,0,6.327-7.949,28.742,28.742,0,0,1-9.12,3.481A14.381,14.381,0,0,0,34.2,62.386a14.809,14.809,0,0,0,.333,3.28A40.709,40.709,0,0,1,4.884,50.622,14.386,14.386,0,0,0,9.3,69.844a14.2,14.2,0,0,1-6.5-1.771v.158A14.448,14.448,0,0,0,14.329,82.362a14.354,14.354,0,0,1-3.771.474,12.716,12.716,0,0,1-2.723-.246A14.519,14.519,0,0,0,21.274,92.609,28.9,28.9,0,0,1,3.442,98.743,26.938,26.938,0,0,1,0,98.546,40.49,40.49,0,0,0,22.063,105C48.529,105,63,83.077,63,64.074c0-.636-.022-1.25-.053-1.859A28.691,28.691,0,0,0,70.154,54.748Z" transform="translate(0 -48)" fill="#2c5364"/>
    </g>
  </g>
</svg>
